<?xml version="1.0" standalone="no"?>
<!DOCTYPE svg PUBLIC "-//W3C//DTD SVG 20010904//EN"
 "http://www.w3.org/TR/2001/REC-SVG-20010904/DTD/svg10.dtd">
<svg version="1.0" xmlns="http://www.w3.org/2000/svg"
 width="240.000000pt" height="210.000000pt" viewBox="0 0 240.000000 210.000000"
 preserveAspectRatio="xMidYMid meet">
<metadata>
Created by potrace 1.16, written by Peter Selinger 2001-2019
</metadata>
<g transform="translate(0.000000,210.000000) scale(0.100000,-0.100000)"
fill="#000000" stroke="none">
<path d="M510 1410 l0 -430 680 0 680 0 0 430 0 430 -680 0 -680 0 0 -430z
m1200 0 l0 -270 -520 0 -520 0 0 270 0 270 520 0 520 0 0 -270z"/>
<path d="M1535 645 c-49 -17 -102 -76 -111 -122 -11 -58 1 -137 25 -172 63
-89 216 -96 293 -15 35 38 48 74 48 135 0 63 -19 108 -59 142 -55 45 -125 57
-196 32z m127 -92 c29 -26 42 -84 28 -127 -32 -97 -156 -85 -175 17 -19 102
77 174 147 110z"/>
<path d="M1915 645 c-57 -20 -85 -56 -85 -109 0 -54 24 -78 105 -106 72 -25
83 -34 64 -56 -10 -13 -24 -15 -64 -11 -27 4 -59 9 -71 12 -17 5 -22 0 -31
-29 -10 -33 -9 -37 10 -48 12 -6 51 -13 87 -16 111 -8 173 34 173 119 0 53
-31 85 -103 106 -85 24 -102 45 -52 64 18 7 43 7 74 1 47 -9 47 -9 58 21 15
43 14 45 -27 56 -50 14 -90 13 -138 -4z"/>
<path d="M282 468 l3 -183 45 0 45 0 3 53 c3 48 5 52 29 52 87 0 163 61 163
131 0 55 -24 98 -65 115 -22 9 -70 14 -130 14 l-95 0 2 -182z m182 80 c9 -12
16 -26 16 -30 0 -19 -43 -48 -70 -48 -29 0 -30 1 -30 50 l0 50 34 0 c25 0 39
-7 50 -22z"/>
<path d="M1037 531 c-32 -16 -39 -17 -44 -5 -3 8 -19 14 -39 14 l-34 0 0 -130
0 -130 45 0 45 0 0 78 c0 89 8 102 61 102 34 0 37 2 44 36 3 20 5 37 3 39 -16
14 -50 12 -81 -4z"/>
<path d="M1201 532 c-95 -51 -91 -198 7 -239 35 -14 153 -15 167 -1 3 3 3 17
-1 32 -6 24 -10 26 -63 26 -52 0 -81 11 -81 32 0 4 35 8 78 10 75 3 77 4 80
29 11 97 -96 160 -187 111z m89 -56 c0 -2 3 -11 6 -20 5 -13 -1 -16 -30 -16
-34 0 -47 15 -29 33 7 8 53 10 53 3z"/>
<path d="M610 437 c0 -113 11 -139 67 -153 24 -6 37 -3 96 21 12 5 17 2 17 -9
0 -12 10 -16 35 -16 l35 0 0 130 0 130 -45 0 -44 0 -3 -87 -3 -88 -30 0 -30 0
-3 88 -3 87 -44 0 -45 0 0 -103z"/>
</g>
</svg>
